<svg width="31" height="31" viewBox="0 0 31 31" fill="none" xmlns="http://www.w3.org/2000/svg">
<g clip-path="url(#clip0_81_423)">
<path fill-rule="evenodd" clip-rule="evenodd" d="M15.5 1.3345C11.9384 1.33336 8.49264 2.5547 5.77971 4.77987C3.06676 7.00502 1.26375 10.0887 0.693489 13.4788C0.123229 16.8688 0.822957 20.344 2.6674 23.2821C4.51183 26.2201 7.38054 28.429 10.7599 29.5135C11.5049 29.6476 11.7829 29.1999 11.7829 28.8192C11.7829 28.4384 11.7706 27.3347 11.7631 26.1256C7.59157 27.0019 6.71258 24.4208 6.71258 24.4208C6.02974 22.7448 5.04647 22.3042 5.04647 22.3042C3.68578 21.4063 5.15076 21.4254 5.15076 21.4254C6.65547 21.5285 7.44756 22.9147 7.44756 22.9147C8.78593 25.1271 10.9561 24.4878 11.8128 24.1119C11.9468 23.1782 12.3342 22.5412 12.7638 22.1796C9.43401 21.8133 5.9329 20.5731 5.9329 15.0325C5.91059 13.5962 6.46381 12.2067 7.47734 11.1537C7.32091 10.7874 6.80693 9.31725 7.62137 7.32276C7.62137 7.32276 8.88028 6.93488 11.7457 8.80726C14.2039 8.15599 16.7987 8.15599 19.2568 8.80726C22.1173 6.93488 23.3762 7.32276 23.3762 7.32276C24.1906 9.31488 23.6791 10.785 23.5227 11.1537C24.5353 12.2071 25.0876 13.5964 25.0646 15.0325C25.0646 20.5874 21.5586 21.8109 18.2189 22.1677C18.7578 22.6154 19.2369 23.4966 19.2369 24.8446C19.2369 26.7792 19.2196 28.3379 19.2196 28.8144C19.2196 29.1976 19.4878 29.65 20.2476 29.5063C23.6257 28.4203 26.4928 26.2105 28.3357 23.2723C30.1786 20.3343 30.8769 16.8596 30.3059 13.4703C29.7348 10.0809 27.9314 6.99825 25.2188 4.77385C22.5061 2.54945 19.0609 1.32857 15.5 1.32971V1.3345Z" fill="white"/>
</g>
<defs>
<clipPath id="clip0_81_423">
<rect width="30" height="30" fill="white" transform="translate(0.5 0.5)"/>
</clipPath>
</defs>
</svg>
