<svg width="32" height="32" viewBox="0 0 33 32" fill="none" xmlns="http://www.w3.org/2000/svg">
<path fill-rule="evenodd" clip-rule="evenodd" d="M18.596 23.412C17.6377 25.3284 16.7581 25.6 16.5 25.6C16.2419 25.6 15.3623 25.3284 14.404 23.412C13.6371 21.8783 13.0715 19.7128 12.9329 17.2H20.0671C19.9284 19.7128 19.3628 21.8783 18.596 23.412ZM20.0671 14.8H12.9329C13.0715 12.2872 13.6371 10.1217 14.404 8.58803C15.3623 6.67159 16.2419 6.4 16.5 6.4C16.7581 6.4 17.6377 6.67159 18.596 8.58803C19.3628 10.1217 19.9284 12.2872 20.0671 14.8ZM22.4704 17.2C22.3253 20.1204 21.6569 22.7329 20.6552 24.6565C23.5332 23.2727 25.6148 20.4957 26.0257 17.2H22.4704ZM26.0257 14.8H22.4704C22.3253 11.8796 21.6569 9.26712 20.6552 7.3434C23.5332 8.72737 25.6148 11.5043 26.0257 14.8ZM10.5296 14.8C10.6746 11.8796 11.3431 9.26713 12.3448 7.34341C9.46679 8.72737 7.38524 11.5043 6.97427 14.8H10.5296ZM6.97427 17.2C7.38524 20.4957 9.46679 23.2727 12.3448 24.6565C11.3431 22.7329 10.6746 20.1204 10.5296 17.2H6.97427ZM28.5 16C28.5 9.37259 23.1275 4 16.5 4C9.87259 4 4.5 9.37259 4.5 16C4.5 22.6275 9.87259 28 16.5 28C23.1275 28 28.5 22.6275 28.5 16Z" fill="white"/>
</svg>
