<svg width="20" height="20" viewBox="0 0 20 20" fill="none" xmlns="http://www.w3.org/2000/svg">
<g clip-path="url(#clip0_81_430)">
<path d="M9.4075 19.4058V16.9458C9.4075 16.6175 9.67333 16.3517 10.0017 16.3517C10.33 16.3517 10.5958 16.6175 10.5958 16.9458V19.4058C10.5958 19.7342 10.33 20 10.0017 20C9.67333 20 9.4075 19.7342 9.4075 19.4058ZM16.2325 17.0692L14.4933 15.3308C14.38 15.2225 14.31 15.07 14.31 14.9017C14.31 14.5733 14.5758 14.3075 14.9042 14.3075C15.0725 14.3075 15.225 14.3775 15.3333 14.4908L17.0708 16.2317C17.16 16.335 17.2142 16.47 17.2142 16.6183C17.2142 16.9467 16.9483 17.2125 16.62 17.2125C16.4708 17.2125 16.3342 17.1575 16.23 17.0667L16.2308 17.0675L16.2325 17.0692ZM2.93083 17.0692C2.82333 16.9617 2.75667 16.8133 2.75667 16.6492C2.75667 16.485 2.82333 16.3367 2.93083 16.2292L4.67 14.49C4.7775 14.3825 4.92583 14.3158 5.09 14.3158C5.41833 14.3158 5.68417 14.5817 5.68417 14.91C5.68417 15.0742 5.6175 15.2225 5.51 15.33L3.77083 17.0683C3.66333 17.1758 3.515 17.2425 3.35083 17.2425C3.18667 17.2425 3.03833 17.1767 2.93083 17.0692ZM5.26667 9.99833C5.26667 7.38333 7.38667 5.2625 10.0025 5.2625C12.6183 5.2625 14.7383 7.3825 14.7383 9.99833C14.7383 12.6133 12.6183 14.7342 10.0025 14.7342C7.3875 14.7342 5.26667 12.6142 5.26667 9.99833ZM6.45417 9.99833C6.45417 11.9583 8.04333 13.5475 10.0033 13.5475C11.9633 13.5475 13.5525 11.9583 13.5525 9.99833C13.5525 8.03833 11.9633 6.44917 10.0033 6.44917C8.04333 6.44917 6.45417 8.03833 6.45417 9.99833ZM16.9467 10.5925C16.6183 10.5925 16.3525 10.3267 16.3525 9.99833C16.3525 9.67 16.6183 9.40417 16.9467 9.40417H19.4067C19.735 9.40417 20.0008 9.67 20.0008 9.99833C20.0008 10.3267 19.735 10.5925 19.4067 10.5925H16.9467ZM0.594167 10.5925C0.265833 10.5925 0 10.3267 0 9.99833C0 9.67 0.265833 9.40417 0.594167 9.40417H3.055C3.38333 9.40417 3.64917 9.67 3.64917 9.99833C3.64917 10.3267 3.38333 10.5925 3.055 10.5925H0.594167ZM14.4917 5.50667C14.3842 5.39917 14.3175 5.25083 14.3175 5.08667C14.3175 4.9225 14.3842 4.77417 14.4917 4.66667L16.2308 2.9275C16.3383 2.82 16.4867 2.75333 16.6508 2.75333C16.9792 2.75333 17.245 3.01917 17.245 3.3475C17.245 3.51167 17.1783 3.66 17.0708 3.7675L15.3317 5.50667C15.2242 5.61417 15.0758 5.68083 14.9117 5.68083C14.7475 5.68083 14.5992 5.61417 14.4917 5.50667ZM4.66833 5.50667L2.93083 3.76917C2.82333 3.66167 2.75667 3.51333 2.75667 3.34917C2.75667 3.02083 3.0225 2.755 3.35083 2.755C3.515 2.755 3.66333 2.82167 3.77083 2.92917L5.51 4.66833C5.6175 4.77583 5.68417 4.92417 5.68417 5.08833C5.68417 5.41667 5.41833 5.6825 5.09 5.6825C4.92583 5.6825 4.7775 5.61583 4.67 5.50833L4.66833 5.50667ZM9.40583 3.05333V0.594167C9.40583 0.265833 9.67167 0 10 0C10.3283 0 10.5942 0.265833 10.5942 0.594167V3.05417C10.5942 3.3825 10.3283 3.64833 10 3.64833C9.67167 3.64833 9.40583 3.38167 9.40583 3.05333Z" fill="white"/>
</g>
<defs>
<clipPath id="clip0_81_430">
<rect width="20" height="20" fill="white"/>
</clipPath>
</defs>
</svg>
