<svg width="20" height="20" viewBox="0 0 20 20" fill="none" xmlns="http://www.w3.org/2000/svg">
<path d="M11.3241 18.0492C8.09661 18.9142 4.22661 17.595 2.17411 15.0225C2.07767 14.9016 2.01679 14.7562 1.99829 14.6026C1.97979 14.4491 2.0044 14.2934 2.06935 14.153C2.13431 14.0126 2.23705 13.8931 2.36608 13.8078C2.49511 13.7225 2.64534 13.6748 2.79994 13.67C6.11994 13.5717 8.35161 12.4325 9.60827 10.255C10.8666 8.07752 10.7366 5.57502 9.16244 2.65085C9.08902 2.51455 9.05502 2.36049 9.06425 2.20595C9.07348 2.05141 9.12557 1.9025 9.2147 1.77591C9.30382 1.64932 9.42645 1.55006 9.56882 1.48926C9.7112 1.42846 9.8677 1.40852 10.0208 1.43168C13.2741 1.92335 16.3516 4.61502 17.2166 7.84335C18.4083 12.2883 15.7691 16.8583 11.3241 18.0492Z" fill="white"/>
</svg>
